HIERARCHY
ROOT Hips
{
	OFFSET 0.000000 0.000000 0.000000
	CHANNELS 6 Xposition Yposition Zposition Xrotation Yrotation Zrotation
	JOINT LeftUpLeg_virtual
	{
		OFFSET 0.000000 0.000000 0.000000
		CHANNELS 3 Xrotation Yrotation Zrotation
		JOINT LeftUpLeg
		{
			OFFSET 15.427100 -6.655098 0.678600
			CHANNELS 3 Xrotation Yrotation Zrotation
			JOINT LeftLeg
			{
				OFFSET 4.081073 -39.591068 13.024000
				CHANNELS 3 Xrotation Yrotation Zrotation
				JOINT LeftFoot
				{
					OFFSET -4.081074 -37.707932 -15.979700
					CHANNELS 3 Xrotation Yrotation Zrotation
					JOINT LeftToeBase
					{
						OFFSET 5.346399 -15.068900 20.645000
						CHANNELS 3 Xrotation Yrotation Zrotation
						JOINT LeftToe_End
						{
							OFFSET 2.754700 0.931300 11.300900
							CHANNELS 3 Xrotation Yrotation Zrotation
							End Site
							{
								OFFSET 0 0 0
							}
						}
					}
				}
			}
		}
	}
	JOINT RightUpLeg_virtual
	{
		OFFSET 0.000000 0.000000 0.000000
		CHANNELS 3 Xrotation Yrotation Zrotation
		JOINT RightUpLeg
		{
			OFFSET -15.569500 -6.655098 0.678600
			CHANNELS 3 Xrotation Yrotation Zrotation
			JOINT RightLeg
			{
				OFFSET -4.081825 -39.591045 13.023800
				CHANNELS 3 Xrotation Yrotation Zrotation
				JOINT RightFoot
				{
					OFFSET 4.081824 -37.707954 -15.979600
					CHANNELS 3 Xrotation Yrotation Zrotation
					JOINT RightToeBase
					{
						OFFSET -5.346400 -15.068900 20.645000
						CHANNELS 3 Xrotation Yrotation Zrotation
						JOINT RightToe_End
						{
							OFFSET -2.754700 0.931300 11.300900
							CHANNELS 3 Xrotation Yrotation Zrotation
							End Site
							{
								OFFSET 0 0 0
							}
						}
					}
				}
			}
		}
	}
	JOINT Spine_virtual
	{
		OFFSET 0.000000 0.000000 0.000000
		CHANNELS 3 Xrotation Yrotation Zrotation
		JOINT Spine
		{
			OFFSET -0.279200 12.230698 -2.892100
			CHANNELS 3 Xrotation Yrotation Zrotation
			JOINT Spine1
			{
				OFFSET -0.232667 10.192268 -1.242267
				CHANNELS 3 Xrotation Yrotation Zrotation
				JOINT Spine1_split
				{
					OFFSET -0.232667 10.192268 -1.242267
					CHANNELS 3 Xrotation Yrotation Zrotation
					JOINT Spine2
					{
						OFFSET -0.232667 10.192268 -1.242267
						CHANNELS 3 Xrotation Yrotation Zrotation
						JOINT Neck_virtual
						{
							OFFSET 0.000000 0.000000 0.000000
							CHANNELS 3 Xrotation Yrotation Zrotation
							JOINT Neck
							{
								OFFSET -0.418800 17.814194 8.416900
								CHANNELS 3 Xrotation Yrotation Zrotation
								JOINT Head
								{
									OFFSET 0.000000 7.031097 3.806800
									CHANNELS 3 Xrotation Yrotation Zrotation
									JOINT HeadTop_End
									{
										OFFSET 0.000000 24.646606 12.978600
										CHANNELS 3 Xrotation Yrotation Zrotation
										End Site
										{
											OFFSET 0 0 0
										}
									}
								}
							}
						}
						JOINT LeftShoulder_virtual
						{
							OFFSET 0.000000 0.000000 0.000000
							CHANNELS 3 Xrotation Yrotation Zrotation
							JOINT LeftShoulder
							{
								OFFSET 8.476499 7.247704 -3.868750
								CHANNELS 3 Xrotation Yrotation Zrotation
								JOINT LeftShoulder_split
								{
									OFFSET 8.476499 7.247704 -3.868750
									CHANNELS 3 Xrotation Yrotation Zrotation
									JOINT LeftArm
									{
										OFFSET 9.308998 -2.777710 0.208600
										CHANNELS 3 Xrotation Yrotation Zrotation
										JOINT LeftForeArm
										{
											OFFSET 29.972298 0.000000 0.000000
											CHANNELS 3 Xrotation Yrotation Zrotation
											JOINT LeftHand
											{
												OFFSET 26.026505 0.000000 0.000000
												CHANNELS 3 Xrotation Yrotation Zrotation
												End Site
												{
													OFFSET 0 0 0
												}
											}
										}
									}
								}
							}
						}
						JOINT RightShoulder_virtual
						{
							OFFSET 0.000000 0.000000 0.000000
							CHANNELS 3 Xrotation Yrotation Zrotation
							JOINT RightShoulder
							{
								OFFSET -7.570500 7.247704 -3.868750
								CHANNELS 3 Xrotation Yrotation Zrotation
								JOINT RightShoulder_split
								{
									OFFSET -7.570500 7.247704 -3.868750
									CHANNELS 3 Xrotation Yrotation Zrotation
									JOINT RightArm
									{
										OFFSET -9.308998 -2.777710 0.208500
										CHANNELS 3 Xrotation Yrotation Zrotation
										JOINT RightForeArm
										{
											OFFSET -29.972300 0.000000 0.000000
											CHANNELS 3 Xrotation Yrotation Zrotation
											JOINT RightHand
											{
												OFFSET -26.026505 0.000000 0.000000
												CHANNELS 3 Xrotation Yrotation Zrotation
												End Site
												{
													OFFSET 0 0 0
												}
											}
										}
									}
								}
							}
						}
					}
				}
			}
		}
	}
}
MOTION
Frames: 8
Frame Time: 0.03333333
4.195343 82.346138 123.016998 0.000000 0.000000 0.000000 4.400718 -4.297132 -2.875107 -47.377652 1.693253 9.759425 35.477939 -2.944303 2.102825 0.025933 -11.502659 -5.214862 4.587399 -3.961440 -0.703369 0.000000 0.000000 0.000000 4.813618 -0.506370 -2.584352 -16.920996 0.489351 8.469987 42.458846 2.542562 -0.444407 -28.959831 -1.672288 -0.874119 4.942872 0.418697 -0.319309 0.000000 0.000000 0.000000 2.640639 0.959272 -1.774963 17.226634 3.380970 -0.459404 18.826318 6.873501 3.778336 0.989374 -4.113405 1.976919 0.000000 0.000000 0.000000 17.839993 7.839284 2.849813 -46.314970 20.699139 -27.802432 39.808757 -39.988531 40.873963 0.000000 0.000000 0.000000 19.510818 7.147254 3.426469 -2.140314 -12.631024 -7.574718 -4.137222 3.792866 -5.975681 -11.537908 -1.054255 -57.624762 -1.589450 -68.966667 -3.778778 0.000000 0.000000 0.000000 18.137608 8.044383 3.509484 0.013842 19.647055 6.788026 -2.411763 4.788807 8.568730 -56.450919 6.177294 31.868034 -170.326627 81.726943 169.705899 0.000000 0.000000 0.000000 
3.860744 82.710686 121.524231 0.000000 0.000000 0.000000 2.210798 -4.333104 -3.737972 -44.666357 1.110379 12.087498 33.876908 -0.236119 2.186554 -3.890062 -8.750304 -6.779213 3.265015 -4.256013 0.872903 0.000000 0.000000 0.000000 2.898791 -1.053538 -3.414290 -16.568856 -0.269564 9.704228 41.951145 2.998913 -0.136017 -27.394401 -1.491773 -1.522045 5.196033 0.504145 -0.323288 0.000000 0.000000 0.000000 0.678424 0.996680 -2.827204 17.115450 3.330593 0.163101 18.051292 6.566301 3.748548 0.912764 -4.275016 1.780461 0.000000 0.000000 0.000000 17.023582 7.627006 2.813099 -46.897336 19.524220 -27.040173 40.321445 -38.439386 40.253187 0.000000 0.000000 0.000000 18.712512 6.874331 3.388078 -1.708705 -11.608670 -7.106692 -4.018497 3.860990 -5.848441 -14.038729 -0.969966 -59.514546 -0.333397 -63.249266 -2.741945 0.000000 0.000000 0.000000 17.319944 7.775280 3.524986 -0.076239 17.348247 8.530914 -1.835068 4.560297 8.264246 -59.569174 7.513901 30.977438 -169.844743 82.342520 169.421818 0.000000 0.000000 0.000000 
3.528371 82.886650 120.033646 0.000000 0.000000 0.000000 0.262051 -4.216853 -4.409255 -41.833727 1.172341 14.187919 33.280599 2.086836 2.167627 -8.018643 -6.829022 -8.067823 1.682238 -4.662340 3.054314 0.000000 0.000000 0.000000 1.197366 -1.320767 -4.067280 -16.398070 -0.366081 10.783092 41.958921 3.590598 -0.109662 -26.003739 -1.610298 -2.033013 4.809337 0.506645 -0.327686 0.000000 0.000000 0.000000 -1.153991 1.243932 -3.741152 16.983759 3.268704 0.795042 17.317419 6.133908 3.645778 0.837064 -4.682947 1.529618 0.000000 0.000000 0.000000 16.243223 7.257890 2.739874 -47.417817 18.131340 -25.998458 40.350254 -36.961760 38.893607 0.000000 0.000000 0.000000 17.982148 6.477113 3.277785 -1.253353 -10.619331 -6.694373 -3.944806 3.987835 -5.659310 -16.509423 -0.540986 -61.046202 0.679731 -57.754078 -1.940152 0.000000 0.000000 0.000000 16.634250 7.367373 3.436901 -0.053521 15.051534 10.208834 -1.362685 4.444978 8.103585 -63.976968 8.212923 30.275100 -170.116257 82.612682 169.856245 0.000000 0.000000 0.000000 
3.244033 82.930649 118.517021 0.000000 0.000000 0.000000 -1.286857 -3.886824 -4.983476 -39.134706 1.254961 15.949752 34.828183 3.656981 1.982504 -11.164414 -5.970423 -9.432318 0.258795 -5.071878 5.209606 0.000000 0.000000 0.000000 -0.269995 -1.335869 -4.666652 -16.537614 -0.033331 11.848224 42.463535 4.310351 -0.232657 -24.931975 -1.897593 -2.384545 4.125202 0.437663 -0.240131 0.000000 0.000000 0.000000 -2.663943 1.674637 -4.569644 16.747858 3.189853 1.477346 16.580332 5.579447 3.486008 0.590892 -4.977353 1.303880 0.000000 0.000000 0.000000 15.474338 6.731659 2.623887 -47.732596 16.488406 -24.730180 40.013294 -35.625276 37.030458 0.000000 0.000000 0.000000 17.267973 5.956674 3.123583 -0.792492 -9.667316 -6.334040 -3.861320 4.128755 -5.447444 -18.412028 0.199768 -62.179385 1.468127 -53.217675 -1.347645 0.000000 0.000000 0.000000 16.019587 6.813632 3.264994 0.091810 12.795681 11.581538 -0.869470 4.412805 7.968587 -69.476268 8.102079 29.803810 -171.692705 81.946315 171.543548 0.000000 0.000000 0.000000 
3.048233 82.915062 116.933815 0.000000 0.000000 0.000000 -2.388947 -3.245298 -5.625061 -36.760642 0.731462 17.340037 38.937478 4.711552 1.587228 -12.386767 -5.975051 -10.420187 -0.669700 -5.220594 6.325060 0.000000 0.000000 0.000000 -1.465249 -0.982753 -5.305495 -16.685334 0.526660 12.999652 43.128318 4.927866 -0.372406 -24.401216 -2.250304 -2.933917 3.893306 0.333935 -0.027643 0.000000 0.000000 0.000000 -3.833324 2.240782 -5.381955 16.369231 3.050568 2.226790 15.799175 4.928238 3.306986 0.320693 -5.099236 1.141526 0.000000 0.000000 0.000000 14.706690 6.084078 2.475729 -47.723174 14.627081 -23.323949 39.376157 -34.592938 34.971279 0.000000 0.000000 0.000000 16.524605 5.339319 2.961617 -0.355675 -8.859687 -5.985909 -3.672087 4.248100 -5.253079 -19.469745 1.197806 -62.944353 2.108095 -50.153710 -0.887831 0.000000 0.000000 0.000000 15.401453 6.123413 3.054978 0.336425 10.614435 12.446240 -0.150493 4.342560 7.842652 -75.955433 7.285251 29.531006 -173.900059 79.966161 173.807974 0.000000 0.000000 0.000000 
2.966618 82.865211 115.275993 0.000000 0.000000 0.000000 -3.147504 -2.518529 -6.388021 -34.920674 -0.685396 18.760028 45.514448 5.541273 1.105770 -10.906560 -6.330248 -10.361970 -0.427785 -4.890537 5.397063 0.000000 0.000000 0.000000 -2.377155 -0.335848 -6.035907 -16.701249 1.092701 14.225484 43.672633 5.337687 -0.432554 -24.431532 -2.576605 -3.743952 4.294421 0.240570 0.258984 0.000000 0.000000 0.000000 -4.644897 2.828785 -6.236148 15.840795 2.806436 3.037086 14.958126 4.197937 3.149163 0.071848 -4.911599 1.085898 0.000000 0.000000 0.000000 13.944877 5.359025 2.323631 -47.349378 12.618637 -21.925249 38.426053 -34.096748 32.984329 0.000000 0.000000 0.000000 15.712609 4.661275 2.841783 0.035429 -8.268824 -5.621229 -3.328945 4.237235 -5.158221 -19.528445 2.305610 -63.371779 2.608387 -48.867640 -0.527014 0.000000 0.000000 0.000000 14.717103 5.344985 2.856144 0.641052 8.538165 12.647262 0.789050 4.315068 7.647239 -83.099968 6.051219 29.345979 -175.502763 76.914364 175.421811 0.000000 0.000000 0.000000 
2.959467 82.685211 113.831108 0.000000 0.000000 0.000000 -3.693033 -2.121370 -7.201173 -33.440695 -2.891056 20.342105 53.435080 6.286126 0.724780 -6.853930 -6.468933 -9.219616 1.428375 -4.104893 2.133318 0.000000 0.000000 0.000000 -2.978674 0.406236 -6.863447 -16.602373 1.570961 15.348413 43.782582 5.564612 -0.353360 -24.589472 -2.830842 -4.397547 4.517261 0.183398 0.524116 0.000000 0.000000 0.000000 -5.149899 3.484828 -7.101467 15.181516 2.435393 3.851993 14.086072 3.425257 3.034065 -0.014084 -4.534865 1.164398 0.000000 0.000000 0.000000 13.171937 4.607308 2.205244 -46.595291 10.636332 -20.642765 37.213623 -34.212148 31.255533 0.000000 0.000000 0.000000 14.847651 3.945355 2.788257 0.357091 -7.996397 -5.236412 -2.870544 4.169588 -5.177059 -18.679092 3.376929 -63.416640 3.054129 -49.210116 -0.189952 0.000000 0.000000 0.000000 13.937534 4.530991 2.717372 0.947334 6.656613 12.186041 1.617504 4.134390 7.457215 -90.512123 4.951714 29.049300 -176.289273 73.677278 176.191601 0.000000 0.000000 0.000000 
2.991904 82.382187 112.399750 0.000000 0.000000 0.000000 -4.205035 -2.212517 -7.971327 -31.727694 -4.931806 22.087263 60.691169 7.206248 0.576546 -1.923408 -6.008348 -6.898068 4.684816 -3.257905 -2.875577 0.000000 0.000000 0.000000 -3.299312 1.037559 -7.667913 -16.500767 1.896223 16.126548 43.443582 5.716266 -0.236448 -24.294952 -2.993418 -4.539871 3.929412 0.152713 0.641425 0.000000 0.000000 0.000000 -5.465919 4.123829 -7.907716 14.473702 1.919186 4.583810 13.201158 2.642358 2.976604 0.133470 -4.290781 1.216533 0.000000 0.000000 0.000000 12.393787 3.876911 2.139429 -45.465892 8.782720 -19.572225 35.808814 -34.935817 29.840079 0.000000 0.000000 0.000000 13.945021 3.225292 2.797963 0.598559 -8.124948 -4.854262 -2.423381 4.144158 -5.311922 -17.132338 4.399310 -63.076025 3.437219 -50.560588 0.150542 0.000000 0.000000 0.000000 13.094386 3.740243 2.660400 1.217397 4.970949 11.173506 2.145649 3.929334 7.199456 -97.513217 4.373753 28.583293 -176.431108 71.382198 176.289641 0.000000 0.000000 0.000000 
